

<svg width="560"
     height="400"
     xmlns="http://www.w3.org/2000/svg">
  <style>
    .tick-label  { font-family: sans-serif; font-size: 12px; fill: #333; }
    .axis-line, .tick-line { stroke: #666; }
    .title       { font-family: sans-serif; font-size: 13px; font-weight: bold; fill: #111; }
    .axis-label  { font-family: sans-serif; font-size: 12px; fill: #555; }
    .legend-text { font-family: sans-serif; font-size: 12px; fill: #333; }
  </style>

  <g transform="translate(70,50)">

    <text class="title" x="190.0" y="-22" text-anchor="middle">
      Relación entre Ansiedad y Año de Estudio
    </text>

    <g transform="translate(0,280)">
      <!-- axis orientation=bottom range=[0,380] ticks=4 -->
  <g class="axis axis-bottom" transform="translate(0, 0)">
    <line class="axis-line" x1="0" y1="0" x2="380" y2="0" stroke="currentColor" stroke-width="1"/>
    <g class="tick" transform="translate(14.25, 0)">
      <line class="tick-line" x1="0" y1="0" x2="0" y2="6" stroke="currentColor" stroke-width="1"/>
      <text class="tick-label" x="0" y="9" text-anchor="middle" dominant-baseline="hanging" dy="0.15em" >Año 1</text>
    </g>
    <g class="tick" transform="translate(109.25, 0)">
      <line class="tick-line" x1="0" y1="0" x2="0" y2="6" stroke="currentColor" stroke-width="1"/>
      <text class="tick-label" x="0" y="9" text-anchor="middle" dominant-baseline="hanging" dy="0.15em" >Año 2</text>
    </g>
    <g class="tick" transform="translate(204.25, 0)">
      <line class="tick-line" x1="0" y1="0" x2="0" y2="6" stroke="currentColor" stroke-width="1"/>
      <text class="tick-label" x="0" y="9" text-anchor="middle" dominant-baseline="hanging" dy="0.15em" >Año 3</text>
    </g>
    <g class="tick" transform="translate(299.25, 0)">
      <line class="tick-line" x1="0" y1="0" x2="0" y2="6" stroke="currentColor" stroke-width="1"/>
      <text class="tick-label" x="0" y="9" text-anchor="middle" dominant-baseline="hanging" dy="0.15em" >Año 4</text>
    </g>
  </g>

    </g>
    <g><!-- axis orientation=left range=[280,0] ticks=8 -->
  <g class="axis axis-left" transform="translate(0, 0)">
    <line class="axis-line" x1="0" y1="280" x2="0" y2="0" stroke="currentColor" stroke-width="1"/>
    <g class="tick" transform="translate(0, 280)">
      <line class="tick-line" x1="-6" y1="0" x2="0" y2="0" stroke="currentColor" stroke-width="1"/>
      <text class="tick-label" x="-9" y="0" text-anchor="end" dominant-baseline="central" >0</text>
    </g>
    <g class="tick" transform="translate(0, 240)">
      <line class="tick-line" x1="-6" y1="0" x2="0" y2="0" stroke="currentColor" stroke-width="1"/>
      <text class="tick-label" x="-9" y="0" text-anchor="end" dominant-baseline="central" >5</text>
    </g>
    <g class="tick" transform="translate(0, 200)">
      <line class="tick-line" x1="-6" y1="0" x2="0" y2="0" stroke="currentColor" stroke-width="1"/>
      <text class="tick-label" x="-9" y="0" text-anchor="end" dominant-baseline="central" >10</text>
    </g>
    <g class="tick" transform="translate(0, 160)">
      <line class="tick-line" x1="-6" y1="0" x2="0" y2="0" stroke="currentColor" stroke-width="1"/>
      <text class="tick-label" x="-9" y="0" text-anchor="end" dominant-baseline="central" >15</text>
    </g>
    <g class="tick" transform="translate(0, 120)">
      <line class="tick-line" x1="-6" y1="0" x2="0" y2="0" stroke="currentColor" stroke-width="1"/>
      <text class="tick-label" x="-9" y="0" text-anchor="end" dominant-baseline="central" >20</text>
    </g>
    <g class="tick" transform="translate(0, 80)">
      <line class="tick-line" x1="-6" y1="0" x2="0" y2="0" stroke="currentColor" stroke-width="1"/>
      <text class="tick-label" x="-9" y="0" text-anchor="end" dominant-baseline="central" >25</text>
    </g>
    <g class="tick" transform="translate(0, 40)">
      <line class="tick-line" x1="-6" y1="0" x2="0" y2="0" stroke="currentColor" stroke-width="1"/>
      <text class="tick-label" x="-9" y="0" text-anchor="end" dominant-baseline="central" >30</text>
    </g>
    <g class="tick" transform="translate(0, 0)">
      <line class="tick-line" x1="-6" y1="0" x2="0" y2="0" stroke="currentColor" stroke-width="1"/>
      <text class="tick-label" x="-9" y="0" text-anchor="end" dominant-baseline="central" >35</text>
    </g>
  </g>
</g>


      <rect x="14.25" y="47.99999999999997"
            width="32.25" height="232.00000000000003"
            fill="#F4C430"/>

      <rect x="47.5" y="168.0"
            width="32.25" height="112.0"
            fill="#2D68C4"/>

      <rect x="109.25" y="152.0"
            width="32.25" height="128.0"
            fill="#F4C430"/>

      <rect x="142.5" y="200.0"
            width="32.25" height="80.0"
            fill="#2D68C4"/>

      <rect x="204.25" y="152.0"
            width="32.25" height="128.0"
            fill="#F4C430"/>

      <rect x="237.5" y="216.0"
            width="32.25" height="64.0"
            fill="#2D68C4"/>

      <rect x="299.25" y="232.0"
            width="32.25" height="48.0"
            fill="#F4C430"/>

      <rect x="332.5" y="264.0"
            width="32.25" height="16.0"
            fill="#2D68C4"/>

    <text class="axis-label" text-anchor="middle"
          x="190.0" y="330">Año de Estudio</text>
    <text class="axis-label" text-anchor="middle"
          transform="rotate(-90)" x="140.0" y="-52">Número de Estudiantes</text>

    <rect x="390" y="0"  width="14" height="14" fill="#F4C430"/>
    <text class="legend-text" x="408" y="12">Sin Ansiedad</text>
    <rect x="390" y="22" width="14" height="14" fill="#2D68C4"/>
    <text class="legend-text" x="408" y="34">Con Ansiedad</text>
    <text class="legend-text" x="390" y="-8" font-weight="bold">Ansiedad</text>
  </g>
</svg>
